<?xml version="1.0" encoding="UTF-8"?>
<svg id="Layer_1" data-name="Layer 1" xmlns="http://www.w3.org/2000/svg" viewBox="0 0 215.41 114.67">
  <defs>
    <style>
      .cls-1 {
        fill: #db7a27;
      }

      .cls-2 {
        fill: #1875bb;
      }

      .cls-3 {
        fill: #223267;
      }

      .cls-4 {
        fill: #4f4f4f;
      }

      .cls-5 {
        fill: #e6bd3d;
      }

      .cls-6 {
        fill: #31312f;
      }

      .cls-7 {
        fill: #aee1f3;
      }
    </style>
  </defs>
  <g>
    <path class="cls-6" d="M77.66.77c.24-.65.78-.79,1.42-.76,1.46.07,3.11.53,4.59.66.75.27,1.09,1.19.59,1.86-.16.22-.42.27-.58.48,10.57,2.06,20.87,7.61,27.27,16.41,8.02,11.04,8.35,24.51,4.55,37.26-.1.34-.58,2.06-.72,2.21-.11.12-.7.45-.88.55-4.11,2.25-11.41,1.89-15.99,1.46-4.97-.46-9.9-1.38-14.79-2.32-5.52,3.58-11.29,6.81-17.95,7.63-10.53,1.3-20.79-3.4-29.8-8.23-2.43-1.3-4.84-2.84-7.34-3.98-.28-.13-1.29-.61-1.51-.6-.3.01-1.44.52-1.79.67-3.75,1.61-6.14,4.02-9.16,6.59-3.56,3.03-9.43,7.29-13.57,2.73-2.51-2.76-2.56-6.78-.6-9.87,1.46-2.3,5.16-4.12,7.6-5.29,5.76-2.75,12.27-4.78,18.57-5.87.03,0,.06-.04.07-.07.02,0,.05,0,.07,0,2.58-.18,5.15-.55,7.74-.68,16.06-.78,31.93,2.09,47.39,6.07,3.32.85,6.6,1.84,9.92,2.65,1.36-9.66,1.67-19.7-.58-29.25-1.57-6.68-4.59-13.55-9.79-18.17-1.21-.3-2.65-.24-3.83-.53-.24-.06-.42-.16-.6-.32-.37-.35-.47-.81-.29-1.28Z"/>
    <path class="cls-6" d="M86.75,55.92c1.77.23,3.53.54,5.29.74,4.13.48,8.6.81,12.74.34,1.48-.17,2.93-.5,4.34-.95.04-.16-.14-.19-.26-.25-.65-.35-1.59-.7-2.28-.99-4.44-1.84-9.07-3.24-13.74-4.4-.21,0-1.34,1.22-1.59,1.45-1.35,1.25-2.74,2.45-4.13,3.65-.08.07-.35.2-.36.22-.03.06,0,.13-.01.19Z"/>
    <path class="cls-1" d="M27.69,42.28c2.58-.18,5.15-.55,7.74-.68,16.06-.78,31.93,2.09,47.39,6.07,3.32.85,6.6,1.84,9.92,2.65,1.36-9.66,1.67-19.7-.58-29.25-1.57-6.68-4.59-13.55-9.79-18.17-1.21-.3-2.65-.24-3.83-.53-.24-.06-.42-.16-.6-.32-.07.11-.26.08-.37.07-15.16-1.4-31.5,3.67-41.15,15.79-5.53,6.94-8.28,15.54-8.73,24.38Z"/>
    <path class="cls-4" d="M27.56,42.35s.06-.04.07-.07c-.03,0-.06.04-.07.07Z"/>
    <path class="cls-4" d="M86.77,55.73c-.03.06,0,.13-.01.19,1.77.23,3.53.54,5.29.74,4.13.48,8.6.81,12.74.34,1.48-.17,2.93-.5,4.34-.95.04-.16-.14-.19-.26-.25-.65-.35-1.59-.7-2.28-.99-4.44-1.84-9.07-3.24-13.74-4.4-.21,0-1.34,1.22-1.59,1.45-1.35,1.25-2.74,2.45-4.13,3.65-.08.07-.35.2-.36.22Z"/>
  </g>
  <path class="cls-2" d="M137.46,9.15c-.18.16-.36.27-.6.32-1.19.29-2.62.23-3.83.53-5.2,4.62-8.21,11.49-9.79,18.17-2.25,9.55-1.94,19.59-.58,29.25,3.32-.81,6.61-1.8,9.92-2.65,15.46-3.98,31.33-6.86,47.39-6.07,2.59.13,5.16.5,7.74.68.02,0,.05,0,.07,0,0,.03.04.06.07.07,6.3,1.09,12.81,3.12,18.57,5.87,2.44,1.17,6.14,2.99,7.6,5.29,1.96,3.09,1.9,7.11-.6,9.87-4.14,4.57-10.01.31-13.57-2.73-3.02-2.57-5.41-4.98-9.16-6.59-.35-.15-1.49-.65-1.79-.67-.22-.01-1.23.47-1.51.6-2.5,1.14-4.91,2.68-7.34,3.98-9.02,4.83-19.28,9.53-29.8,8.23-6.66-.82-12.43-4.05-17.95-7.63-4.9.94-9.82,1.86-14.79,2.32-4.58.42-11.89.78-15.99-1.46-.18-.1-.77-.43-.88-.55-.14-.15-.62-1.87-.72-2.21-3.8-12.75-3.47-26.22,4.55-37.26,6.39-8.8,16.69-14.35,27.27-16.41-.15-.21-.41-.26-.58-.48-.5-.67-.17-1.59.59-1.86,1.48-.13,3.13-.59,4.59-.66.63-.03,1.18.12,1.42.76.18.48.08.94-.29,1.28Z"/>
  <path class="cls-6" d="M128.65,62.84s-.28-.15-.36-.22c-1.39-1.2-2.78-2.4-4.13-3.65-.25-.23-1.37-1.45-1.59-1.45-4.67,1.17-9.29,2.57-13.74,4.4-.7.29-1.64.64-2.28.99-.11.06-.3.09-.26.25,1.41.44,2.86.78,4.34.95,4.13.47,8.61.14,12.74-.34,1.77-.2,3.53-.52,5.29-.74,0-.06.02-.14-.01-.19Z"/>
  <path class="cls-7" d="M187.72,49.39c-2.58-.18-5.15-.55-7.74-.68-16.06-.78-31.93,2.09-47.39,6.07-3.32.85-6.6,1.84-9.92,2.65-1.36-9.66-1.67-19.7.58-29.25,1.57-6.68,4.59-13.55,9.79-18.17,1.21-.3,2.65-.24,3.83-.53.24-.06.42-.16.6-.32.07.11.26.08.37.07,15.16-1.4,31.5,3.67,41.15,15.79,5.53,6.94,8.28,15.54,8.73,24.38Z"/>
  <path class="cls-4" d="M187.85,49.46s-.06-.04-.07-.07c.03,0,.06.04.07.07Z"/>
  <path class="cls-4" d="M128.65,62.84c.03.06,0,.13.01.19-1.77.23-3.53.54-5.29.74-4.13.48-8.6.81-12.74.34-1.48-.17-2.93-.5-4.34-.95-.04-.16.14-.19.26-.25.65-.35,1.59-.7,2.28-.99,4.44-1.84,9.07-3.24,13.74-4.4.21,0,1.34,1.22,1.59,1.45,1.35,1.25,2.74,2.45,4.13,3.65.08.07.35.2.36.22Z"/>
  <g>
    <path class="cls-3" d="M82.65,50.29c-.18.16-.36.27-.6.32-1.19.29-2.62.23-3.83.53-5.2,4.62-8.21,11.49-9.79,18.17-2.25,9.55-1.94,19.59-.58,29.25,3.32-.81,6.61-1.8,9.92-2.65,15.46-3.98,31.33-6.86,47.39-6.07,2.59.13,5.16.5,7.74.68.02,0,.05,0,.07,0,0,.03.04.06.07.07,6.3,1.09,12.81,3.12,18.57,5.87,2.44,1.17,6.14,2.99,7.6,5.29,1.96,3.09,1.9,7.11-.6,9.87-4.14,4.57-10.01.31-13.57-2.73-3.02-2.57-5.41-4.98-9.16-6.59-.35-.15-1.49-.65-1.79-.67-.22-.01-1.23.47-1.51.6-2.5,1.14-4.91,2.68-7.34,3.98-9.02,4.83-19.28,9.53-29.8,8.23-6.66-.82-12.43-4.05-17.95-7.63-4.9.94-9.82,1.86-14.79,2.32-4.58.42-11.89.78-15.99-1.46-.18-.1-.77-.43-.88-.55-.14-.15-.62-1.87-.72-2.21-3.8-12.75-3.47-26.22,4.55-37.26,6.39-8.8,16.69-14.35,27.27-16.41-.15-.21-.41-.26-.58-.48-.5-.67-.17-1.59.59-1.86,1.48-.13,3.13-.59,4.59-.66.63-.03,1.18.12,1.42.76.18.48.08.94-.29,1.28Z"/>
    <path class="cls-6" d="M73.84,103.97s-.28-.15-.36-.22c-1.39-1.2-2.78-2.4-4.13-3.65-.25-.23-1.37-1.45-1.59-1.45-4.67,1.17-9.29,2.57-13.74,4.4-.7.29-1.64.64-2.28.99-.11.06-.3.09-.26.25,1.41.44,2.86.78,4.34.95,4.13.47,8.61.14,12.74-.34,1.77-.2,3.53-.52,5.29-.74,0-.06.02-.14-.01-.19Z"/>
    <path class="cls-5" d="M132.91,90.52c-2.58-.18-5.15-.55-7.74-.68-16.06-.78-31.93,2.09-47.39,6.07-3.32.85-6.6,1.84-9.92,2.65-1.36-9.66-1.67-19.7.58-29.25,1.57-6.68,4.59-13.55,9.79-18.17,1.21-.3,2.65-.24,3.83-.53.24-.06.42-.16.6-.32.07.11.26.08.37.07,15.16-1.4,31.5,3.67,41.15,15.79,5.53,6.94,8.28,15.54,8.73,24.38Z"/>
    <path class="cls-4" d="M133.05,90.59s-.06-.04-.07-.07c.03,0,.06.04.07.07Z"/>
    <path class="cls-4" d="M73.84,103.97c.03.06,0,.13.01.19-1.77.23-3.53.54-5.29.74-4.13.48-8.6.81-12.74.34-1.48-.17-2.93-.5-4.34-.95-.04-.16.14-.19.26-.25.65-.35,1.59-.7,2.28-.99,4.44-1.84,9.07-3.24,13.74-4.4.21,0,1.34,1.22,1.59,1.45,1.35,1.25,2.74,2.45,4.13,3.65.08.07.35.2.36.22Z"/>
  </g>
</svg>